<svg width="134" height="299" viewBox="0 0 134 299" fill="none" xmlns="http://www.w3.org/2000/svg">
<circle cx="2.5" cy="2.5" r="2.5" fill="#404040"/>
<circle cx="2.5" cy="170.5" r="2.5" fill="#404040"/>
<circle cx="2.5" cy="86.5" r="2.5" fill="#404040"/>
<circle cx="2.5" cy="254.5" r="2.5" fill="#404040"/>
<circle cx="88.5" cy="2.5" r="2.5" fill="#404040"/>
<circle cx="88.5" cy="170.5" r="2.5" fill="#404040"/>
<circle cx="88.5" cy="86.5" r="2.5" fill="#404040"/>
<circle cx="88.5" cy="254.5" r="2.5" fill="#404040"/>
<circle cx="2.5" cy="44.5" r="2.5" fill="#404040"/>
<circle cx="2.5" cy="212.5" r="2.5" fill="#404040"/>
<circle cx="2.5" cy="128.5" r="2.5" fill="#404040"/>
<circle cx="2.5" cy="296.5" r="2.5" fill="#404040"/>
<circle cx="88.5" cy="44.5" r="2.5" fill="#404040"/>
<circle cx="88.5" cy="212.5" r="2.5" fill="#404040"/>
<circle cx="88.5" cy="128.5" r="2.5" fill="#404040"/>
<circle cx="88.5" cy="296.5" r="2.5" fill="#404040"/>
<circle cx="45.5" cy="2.5" r="2.5" fill="#404040"/>
<circle cx="45.5" cy="170.5" r="2.5" fill="#404040"/>
<circle cx="45.5" cy="86.5" r="2.5" fill="#404040"/>
<circle cx="45.5" cy="254.5" r="2.5" fill="#404040"/>
<circle cx="131.5" cy="2.5" r="2.5" fill="#404040"/>
<circle cx="131.5" cy="170.5" r="2.5" fill="#404040"/>
<circle cx="131.5" cy="86.5" r="2.5" fill="#404040"/>
<circle cx="131.5" cy="254.5" r="2.5" fill="#404040"/>
<circle cx="45.5" cy="44.5" r="2.5" fill="#404040"/>
<circle cx="45.5" cy="212.5" r="2.5" fill="#404040"/>
<circle cx="45.5" cy="128.5" r="2.5" fill="#404040"/>
<circle cx="45.5" cy="296.5" r="2.5" fill="#404040"/>
<circle cx="131.5" cy="44.5" r="2.5" fill="#404040"/>
<circle cx="131.5" cy="212.5" r="2.5" fill="#404040"/>
<circle cx="131.5" cy="128.5" r="2.5" fill="#404040"/>
<circle cx="131.5" cy="296.5" r="2.5" fill="#404040"/>
</svg>
